# xmcd
#
# Track frame offsets: 
#        150
#        17491
#        52042
#        72061
#        94799
#        117522
#        143437
#        168143
#        190671
#        207786
#
# Disc length: 2998 seconds
#
# Revision: 0
# Processed by: cddbd v1.5.2PL0 Copyright (c) Steve Scherf et al.
# Submitted via: ExactAudioCopy v1.0b1
#
DISCID=7c0bb40a
DTITLE=Peter Green - Blue Guitar
DYEAR=1999
DGENRE=Blues
TTITLE0=Apostle
TTITLE1=A Fool No More
TTITLE2=Looser Two Times
TTITLE3=Slabo Day
TTITLE4=Cryin' Won't Bring You Back
TTITLE5=Gotta See Her Tonight
TTITLE6=Last Train To San Antone
TTITLE7=Woman Don't
TTITLE8=Whatcha Gonna Do?
TTITLE9=Walkin' the Road
EXTD=
EXTT0=
EXTT1=
EXTT2=
EXTT3=
EXTT4=
EXTT5=
EXTT6=
EXTT7=
EXTT8=
EXTT9=
PLAYORDER=
